<svg fill="#000000" xmlns="http://www.w3.org/2000/svg" viewBox="0 0 50 50" width="50px" height="50px"><path d="M16.868,34.848c-1.426,1.507-1.824,3.399-1.029,3.86c0.737,0.427,2.455-0.08,3.685-1.421 c0.403-0.44,0.732-0.916,0.978-1.425c0.049-0.102,0.095-0.205,0.137-0.309c0.042-0.104,0.081-0.21,0.116-0.317 c0.318-0.962,0.352-2.024,0.044-3.163c-0.065,0.036-0.13,0.071-0.194,0.105l0.003,0.007C20.609,32.184,18.402,33.227,16.868,34.848 z"/><path d="M25,2C12.318,2,2,12.318,2,25s10.318,23,23,23s23-10.318,23-23S37.682,2,25,2z M31.907,22.622 c-3.669,1.419-6.703,1.195-7.95,0.786c-1.417-0.465-2.248-1.4-2.45-1.927c-0.079-0.207-0.217-0.553,0-0.673 c0.133-0.074,0.186-0.056,0.542,0.337c0.339,0.373,1.699,1.375,4.283,1.085c6.783-0.76,10.868-6.03,9.577-8.866 c-0.904-1.985-6.132-2.88-12.663,0.374c-7.973,3.973-8.405,7.248-8.473,8.492c-0.187,3.421,4.223,5.221,6.608,7.766 c0.056,0.06,0.11,0.12,0.164,0.181c0.722-0.269,1.721-0.42,3.31-0.447c3.858-0.066,6.038,2.477,5.948,4.751 c-0.07,1.791-1.714,2.529-2.02,2.58c-0.222,0.038-0.343,0.044-0.374-0.13c-0.022-0.12,0.058-0.175,0.318-0.337 c0.26-0.161,1.039-0.694,1.178-1.665c0.139-0.97-0.589-3.289-4.302-3.722c-1.316-0.154-2.351-0.049-3.239,0.186 c0.644,1.419,0.767,4.273-0.714,6.483c-1.535,2.29-4.392,3.683-7.176,2.908c-0.898-0.25-2.256-2.107-1.085-4.695 c1.11-2.453,5.851-4.852,6.498-5.171v-0.011c-2.197-1.891-7.541-4.441-8.294-8.341c-0.214-1.105,0.305-3.751,3.554-6.79 c2.733-2.556,6.534-4.514,10.044-5.761c5.899-2.096,12.133-0.86,13.091,2.899C39.225,16.611,36.016,21.033,31.907,22.622z"/></svg>